<svg xmlns="http://www.w3.org/2000/svg" version="1.1" xmlns:xlink="http://www.w3.org/1999/xlink" viewBox="0 0 10.038093041522144 3.60360672475241"><g transform="matrix(0.7601880205430532,0,0,0.7601880205430532,3.9575677631464683,1.3548128062968896)"><g transform="matrix(1,0,0,1,0,0)" clip-path="url(#SvgjsClipPath63823)"><g clip-path="url(#b596e79af-ac47-41c6-a6ad-693cba886d56bd7d2125-08d0-4f7d-bdbe-2848743df97a)"><path d=" M -2.2618178394256234 1.138378412330513 C -2.1588157996558652 1.1976255666750644 -2.0293203922465834 1.1976709320306114 -1.833251325571889 1.1976255666750644 L -1.148257139488003 1.197693614708385 L -0.9922683644391972 1.197693614708385 L -0.9923137297947444 1.0441092035035773 L -1.8682053320209522 1.0441092035035773 L -1.8682053320209522 1.0416367916262588 C -2.186307205117426 1.0412285034263347 -2.2744747736232727 1.0307944716504946 -2.27452013897882 0.7339235849500778 L -2.274565504334367 -0.08458084250901021 L -1.8682053320209524 -0.08455815983123671 L -1.8682053320209524 -0.08576034175323566 L -1.0657148750700007 -0.08576034175323566 C -1.0939094435425416 -0.12636233496791682 -1.1305192854690755 -0.1588666122174351 -1.1752041606829984 -0.182796837268546 C -1.2829015147518843 -0.24047888684672158 -1.4187253892599907 -0.24043352149117442 -1.6243438632773561 -0.24047888684672158 L -2.2745881870121405 -0.24052425220226875 L -2.430486231349852 -0.24052425220226875 L -2.430486231349852 -0.08462620786455743 L -2.4304181833165313 0.7339916329833986 C -2.430463548672078 0.832026166320746 -2.4218441311181236 0.9019114965410993 -2.402586537688367 0.9605235359079909 C -2.3764560928932204 1.039844860082147 -2.3290719790242433 1.0997271294043585 -2.2618178394256234 1.138378412330513" fill="#ffffff" transform="matrix(1,0,0,1,0,0)" fill-rule="nonzero"></path></g><g clip-path="url(#b596e79af-ac47-41c6-a6ad-693cba886d56bd7d2125-08d0-4f7d-bdbe-2848743df97a)"><path d=" M -2.4173075955634107 1.4087559313914062 C -2.2421292751181694 1.5094216553504867 -2.0617112561072344 1.5094897033838077 -1.8332966909274362 1.5094897033838077 L -1.449687244420907 1.509535068739355 L -1.6056306541141656 1.3535916590460966 L -1.8332740082496626 1.3536370244016434 C -2.046445813965625 1.3535462936905494 -2.2005065614036776 1.3534782456572285 -2.3395967415111776 1.2735218065054124 C -2.4094140236982104 1.2334188322017499 -2.5027078773808826 1.154959449782989 -2.550659058194199 1.0092686104433817 C -2.5753831769673843 0.9341435816573349 -2.5863389103320165 0.8493103667842024 -2.5863842756875632 0.7339916329833984 L -2.5863842756875632 -0.08453547715346332 L -2.5864750063986577 -0.39651302725107446 L -2.2744974563010465 -0.3964449792177537 L -1.6243211805995827 -0.3963996138622068 C -1.40332385105174 -0.3963542485066598 -1.2437512129147112 -0.3963542485066598 -1.1015308232744596 -0.3202538645763496 C -1.0054696829034127 -0.26874150335258357 -0.9327717006391372 -0.18790043976759863 -0.8891302286027982 -0.08578302443100949 L -0.7226847391003797 -0.08578302443100949 C -0.7254747084665283 -0.09447049001828478 -0.7282419951549026 -0.10320332096110718 -0.731326839332108 -0.11170932512619403 C -0.7864003809663229 -0.26363790085353167 -0.8889941325361566 -0.3832890261090863 -1.027902851221468 -0.457733574561926 C -1.2046009110775386 -0.5523883889110122 -1.3898276577764697 -0.5523883889110122 -1.6242758152440362 -0.5523430235554653 L -2.2744974563010465 -0.5524110715887858 L -2.7424184160919163 -0.552456436944333 L -2.742373050736369 -0.08455815983123693 L -2.742282320025275 0.7339916329833984 C -2.7423276853808223 0.8666172499254323 -2.728876857461098 0.9665117628402118 -2.6987769440555778 1.0580590503343197 C -2.648648226175999 1.210418596939355 -2.5512941731718586 1.3316348269612857 -2.4173075955634107 1.4087559313914062" fill="#ffffff" transform="matrix(1,0,0,1,0,0)" fill-rule="nonzero"></path></g><g clip-path="url(#b596e79af-ac47-41c6-a6ad-693cba886d56bd7d2125-08d0-4f7d-bdbe-2848743df97a)"><path d=" M -2.572774669023424 1.6791107677745256 C -2.4408748977701444 1.7550296902826472 -2.2906475228758243 1.7990794505189103 -2.1136319055309243 1.8138685564272745 C -2.023627040125419 1.821353840092551 -1.9355048369751193 1.821353840092551 -1.8333874216385302 1.8213992054480983 L -1.5310273269169106 1.8213992054480983 L -1.686970736610169 1.6654557957548397 L -1.8332740082496626 1.6654557957548397 C -1.931966339242443 1.6654557957548397 -2.017094428926632 1.6654104303992925 -2.100612048488898 1.658492213678355 C -2.198669264504019 1.6503037670020986 -2.346242766098832 1.6294810688059658 -2.495063814971191 1.543876642888532 C -2.662892947817798 1.4474298969953339 -2.7845855140729734 1.2962498496345243 -2.8468721472391825 1.1067360768363899 C -2.8819395670771137 1.00028627004505 -2.898248412396307 0.8818600093892679 -2.898248412396307 0.7340369983389456 L -2.8983164604296277 -0.08458084250901021 L -2.8984071911407217 -0.7084452119931387 L -2.2745428216565937 -0.7083544812820444 L -1.6242984979218094 -0.7083091159264971 C -1.378055348011989 -0.7082864332487233 -1.1654279265625918 -0.7082864332487233 -0.9543202445240238 -0.5951452365141819 C -0.7809111729451201 -0.5023277190647547 -0.6531396490466292 -0.35348398751462196 -0.5847060102037838 -0.16480947379410954 C -0.5754287949943957 -0.13917804790998112 -0.5673991270625538 -0.11284345901487247 -0.5603221315972013 -0.08576034175323588 L -0.40000096509364536 -0.08576034175323588 C -0.40985005463703317 -0.13062042578939215 -0.4225787094149216 -0.1747994650809775 -0.4381078637532334 -0.2180230358508901 C -0.5198335517713883 -0.4433754395312596 -0.6728508960318571 -0.6213210466648762 -0.8807149551488056 -0.7326249464997585 C -1.1263003074031928 -0.8642298429419824 -1.368211065858262 -0.8641844775864347 -1.6243211805995827 -0.8642525256197556 L -2.2744747736232727 -0.8642525256197556 L -3.054305235478433 -0.86434325633085 L -3.054259870122886 -0.08453547715346355 C -3.054259870122886 -0.08453547715346355 -3.054259870122886 0.42634647434053763 -3.054214504767339 0.7340369983389452 C -3.054191822089565 0.8989627484305354 -3.03538788221528 1.032790547294568 -2.9950127157783344 1.1555265167273276 C -2.9205228019699474 1.3820130542963731 -2.7744690397859633 1.563156918996062 -2.572774669023424 1.6791107677745256" fill="#ffffff" transform="matrix(1,0,0,1,0,0)" fill-rule="nonzero"></path></g></g><g><path d=" M 0.4845 0.10650000000000004 L 0.8505 1.0500000000000003 Q 0.873 1.1070000000000002 0.9015 1.1257500000000003 Q 0.93 1.1445 0.9540000000000001 1.1460000000000001 L 0.9540000000000001 1.1760000000000002 Q 0.924 1.1730000000000003 0.8805000000000001 1.1722500000000002 Q 0.837 1.1715000000000002 0.7935 1.1715000000000002 Q 0.735 1.1715000000000002 0.684 1.1722500000000002 Q 0.633 1.1730000000000003 0.6015 1.1760000000000002 L 0.6015 1.1460000000000001 Q 0.678 1.1430000000000002 0.6990000000000001 1.1197500000000002 Q 0.72 1.0965000000000003 0.6900000000000001 1.0200000000000002 L 0.41100000000000003 0.2745000000000002 L 0.435 0.2550000000000001 L 0.17400000000000002 0.9330000000000002 Q 0.15 0.9930000000000001 0.1455 1.0342500000000001 Q 0.14100000000000001 1.0755000000000001 0.15375 1.0995000000000001 Q 0.1665 1.1235000000000002 0.19725 1.1340000000000001 Q 0.228 1.1445 0.2745 1.1460000000000001 L 0.2745 1.1760000000000002 Q 0.2325 1.1730000000000003 0.18675 1.1722500000000002 Q 0.14100000000000001 1.1715000000000002 0.10200000000000001 1.1715000000000002 Q 0.0645 1.1715000000000002 0.03825 1.1722500000000002 Q 0.012 1.1730000000000003 -0.0105 1.1760000000000002 L -0.0105 1.1460000000000001 Q 0.0195 1.1385 0.051000000000000004 1.1107500000000001 Q 0.0825 1.0830000000000002 0.108 1.0155 L 0.4605 0.10650000000000004 Q 0.4665 0.10650000000000004 0.47250000000000003 0.10650000000000004 Q 0.47850000000000004 0.10650000000000004 0.4845 0.10650000000000004 M 0.6675 0.7440000000000002 L 0.6675 0.7740000000000001 L 0.2205 0.7740000000000001 L 0.23550000000000001 0.7440000000000002 L 0.6675 0.7440000000000002 M 1.67400732421875 2.220446049250313e-16 L 1.67400732421875 1.0125000000000002 Q 1.67400732421875 1.08 1.6987573242187501 1.1122500000000002 Q 1.72350732421875 1.1445 1.78800732421875 1.1445 L 1.78800732421875 1.1760000000000002 Q 1.74150732421875 1.1715000000000002 1.69500732421875 1.1715000000000002 Q 1.6515073242187501 1.1715000000000002 1.61175732421875 1.1760000000000002 Q 1.57200732421875 1.1805 1.5390073242187499 1.1925000000000001 L 1.5390073242187499 0.18000000000000016 Q 1.5390073242187499 0.11250000000000004 1.51500732421875 0.08025000000000015 Q 1.49100732421875 0.04800000000000004 1.42500732421875 0.04800000000000004 L 1.42500732421875 0.01650000000000018 Q 1.47300732421875 0.02100000000000013 1.51800732421875 0.02100000000000013 Q 1.56150732421875 0.02100000000000013 1.60125732421875 0.015750000000000153 Q 1.6410073242187502 0.010500000000000176 1.67400732421875 2.220446049250313e-16 M 1.3590073242187501 0.3825000000000002 Q 1.42500732421875 0.3825000000000002 1.48275732421875 0.41400000000000015 Q 1.54050732421875 0.4455000000000001 1.56000732421875 0.5220000000000001 L 1.54050732421875 0.5370000000000001 Q 1.51950732421875 0.4740000000000001 1.47525732421875 0.4455000000000001 Q 1.43100732421875 0.41700000000000015 1.37100732421875 0.41700000000000015 Q 1.28250732421875 0.41700000000000015 1.2232573242187499 0.5085000000000002 Q 1.16400732421875 0.6000000000000001 1.16550732421875 0.7905000000000002 Q 1.16550732421875 0.9120000000000001 1.18875732421875 0.9922500000000002 Q 1.21200732421875 1.0725000000000002 1.25775732421875 1.1122500000000002 Q 1.30350732421875 1.1520000000000001 1.36950732421875 1.1520000000000001 Q 1.43250732421875 1.1520000000000001 1.48350732421875 1.098 Q 1.5345073242187501 1.044 1.54500732421875 0.9390000000000002 L 1.5630073242187499 0.9600000000000002 Q 1.5510073242187499 1.074 1.49025732421875 1.1355000000000002 Q 1.42950732421875 1.197 1.32600732421875 1.197 Q 1.23300732421875 1.197 1.16325732421875 1.1520000000000001 Q 1.09350732421875 1.1070000000000002 1.05675732421875 1.0170000000000001 Q 1.02000732421875 0.9270000000000002 1.02000732421875 0.7905000000000002 Q 1.02000732421875 0.6540000000000001 1.06725732421875 0.5632500000000001 Q 1.11450732421875 0.47250000000000014 1.19175732421875 0.4275000000000001 Q 1.26900732421875 0.3825000000000002 1.3590073242187501 0.3825000000000002 M 2.551497802734375 0.4035000000000002 L 2.551497802734375 0.4335000000000001 Q 2.522997802734375 0.4365000000000001 2.498997802734375 0.4590000000000002 Q 2.474997802734375 0.48150000000000015 2.453997802734375 0.5385000000000001 L 2.207997802734375 1.1835000000000002 Q 2.201997802734375 1.1835000000000002 2.195997802734375 1.1835000000000002 Q 2.189997802734375 1.1835000000000002 2.182497802734375 1.1835000000000002 L 1.906497802734375 0.5190000000000001 Q 1.882497802734375 0.46050000000000013 1.859247802734375 0.4477500000000001 Q 1.835997802734375 0.43500000000000016 1.8194978027343751 0.43500000000000016 L 1.8194978027343751 0.4035000000000002 Q 1.849497802734375 0.40500000000000014 1.881747802734375 0.4072500000000001 Q 1.913997802734375 0.4095000000000001 1.951497802734375 0.4095000000000001 Q 1.997997802734375 0.4095000000000001 2.049747802734375 0.40800000000000014 Q 2.101497802734375 0.4065000000000002 2.146497802734375 0.4035000000000002 L 2.146497802734375 0.43500000000000016 Q 2.108997802734375 0.43500000000000016 2.079747802734375 0.44025000000000014 Q 2.050497802734375 0.4455000000000001 2.042247802734375 0.46950000000000014 Q 2.033997802734375 0.49350000000000016 2.056497802734375 0.5520000000000002 L 2.243997802734375 1.0155 L 2.234997802734375 1.0230000000000001 L 2.405997802734375 0.5745000000000001 Q 2.425497802734375 0.5250000000000001 2.421747802734375 0.49575000000000014 Q 2.417997802734375 0.46650000000000014 2.391747802734375 0.4515000000000001 Q 2.365497802734375 0.4365000000000001 2.311497802734375 0.4335000000000001 L 2.311497802734375 0.4035000000000002 Q 2.3384978027343752 0.40500000000000014 2.357997802734375 0.40575000000000017 Q 2.377497802734375 0.4065000000000002 2.3962478027343748 0.4072500000000001 Q 2.414997802734375 0.40800000000000014 2.437497802734375 0.40800000000000014 Q 2.471997802734375 0.40800000000000014 2.499747802734375 0.4065000000000002 Q 2.527497802734375 0.40500000000000014 2.551497802734375 0.4035000000000002 M 2.9565600585937504 0.3825000000000002 Q 3.0525600585937505 0.3825000000000002 3.1290600585937502 0.4245000000000001 Q 3.2055600585937505 0.46650000000000014 3.2513100585937504 0.5565000000000001 Q 3.2970600585937504 0.6465000000000002 3.2970600585937504 0.7905000000000002 Q 3.2970600585937504 0.9345000000000001 3.2513100585937504 1.0237500000000002 Q 3.2055600585937505 1.1130000000000002 3.1290600585937502 1.1550000000000002 Q 3.0525600585937505 1.197 2.9565600585937504 1.197 Q 2.8620600585937503 1.197 2.7848100585937505 1.1550000000000002 Q 2.7075600585937503 1.1130000000000002 2.6618100585937503 1.0237500000000002 Q 2.6160600585937503 0.9345000000000001 2.6160600585937503 0.7905000000000002 Q 2.6160600585937503 0.6465000000000002 2.6618100585937503 0.5565000000000001 Q 2.7075600585937503 0.46650000000000014 2.7848100585937505 0.4245000000000001 Q 2.8620600585937503 0.3825000000000002 2.9565600585937504 0.3825000000000002 M 2.9565600585937504 0.4125000000000001 Q 2.8710600585937502 0.4125000000000001 2.8163100585937504 0.5010000000000001 Q 2.7615600585937505 0.5895000000000001 2.7615600585937505 0.7905000000000002 Q 2.7615600585937505 0.9915000000000002 2.8163100585937504 1.07925 Q 2.8710600585937502 1.1670000000000003 2.9565600585937504 1.1670000000000003 Q 3.0420600585937505 1.1670000000000003 3.0968100585937504 1.07925 Q 3.15156005859375 0.9915000000000002 3.15156005859375 0.7905000000000002 Q 3.15156005859375 0.5895000000000001 3.0968100585937504 0.5010000000000001 Q 3.0420600585937505 0.4125000000000001 2.9565600585937504 0.4125000000000001 M 3.6900205078125006 1.4580000000000002 Q 3.6105205078125007 1.4580000000000002 3.5400205078125007 1.4415000000000002 Q 3.4695205078125007 1.4250000000000003 3.4267705078125004 1.3897500000000003 Q 3.3840205078125005 1.3545000000000003 3.3840205078125005 1.3005000000000002 Q 3.3840205078125005 1.2480000000000002 3.4260205078125003 1.2105000000000001 Q 3.4680205078125006 1.1730000000000003 3.5400205078125007 1.1535000000000002 L 3.5490205078125006 1.1775000000000002 Q 3.5160205078125006 1.1880000000000002 3.4965205078125003 1.2195000000000003 Q 3.4770205078125005 1.2510000000000001 3.4770205078125005 1.2900000000000003 Q 3.4770205078125005 1.3590000000000002 3.5407705078125007 1.39575 Q 3.6045205078125004 1.4325 3.7065205078125003 1.4325 Q 3.7740205078125006 1.4325 3.8385205078125004 1.4152500000000001 Q 3.9030205078125 1.3980000000000001 3.9450205078125005 1.3575000000000002 Q 3.9870205078125007 1.3170000000000002 3.9870205078125007 1.2510000000000001 Q 3.9870205078125007 1.2015000000000002 3.9517705078125003 1.1692500000000001 Q 3.9165205078125007 1.1370000000000002 3.8130205078125003 1.1370000000000002 L 3.7020205078125006 1.1370000000000002 Q 3.6540205078125005 1.1370000000000002 3.6090205078125006 1.1295000000000002 Q 3.5640205078125007 1.122 3.5355205078125005 1.098 Q 3.5070205078125003 1.074 3.5070205078125003 1.0245000000000002 Q 3.5070205078125003 0.9735000000000001 3.5490205078125006 0.9262500000000001 Q 3.5910205078125004 0.8790000000000002 3.7035205078125006 0.8295000000000001 L 3.7215205078125004 0.8430000000000002 Q 3.6705205078125003 0.8700000000000001 3.6330205078125006 0.8977500000000002 Q 3.5955205078125005 0.9255000000000002 3.5955205078125005 0.9630000000000002 Q 3.5955205078125005 1.0110000000000001 3.6675205078125006 1.0110000000000001 L 3.8550205078125006 1.0110000000000001 Q 3.9180205078125003 1.0110000000000001 3.9712705078125006 1.0290000000000001 Q 4.0245205078125 1.0470000000000002 4.057520507812501 1.086 Q 4.0905205078125 1.1250000000000002 4.0905205078125 1.1880000000000002 Q 4.0905205078125 1.2585000000000002 4.0455205078125 1.3200000000000003 Q 4.0005205078125 1.3815000000000002 3.9112705078125005 1.41975 Q 3.8220205078125007 1.4580000000000002 3.6900205078125006 1.4580000000000002 M 3.6975205078125004 0.8565000000000002 Q 3.6240205078125003 0.8565000000000002 3.5640205078125007 0.8317500000000002 Q 3.5040205078125006 0.8070000000000002 3.4695205078125007 0.7545000000000002 Q 3.4350205078125002 0.7020000000000002 3.4350205078125002 0.6195000000000002 Q 3.4350205078125002 0.5370000000000001 3.4695205078125007 0.48450000000000015 Q 3.5040205078125006 0.43200000000000016 3.5640205078125007 0.4072500000000001 Q 3.6240205078125003 0.3825000000000002 3.6975205078125004 0.3825000000000002 Q 3.7725205078125006 0.3825000000000002 3.8317705078125006 0.4072500000000001 Q 3.8910205078125006 0.43200000000000016 3.9255205078125006 0.48450000000000015 Q 3.9600205078125006 0.5370000000000001 3.9600205078125006 0.6195000000000002 Q 3.9600205078125006 0.7020000000000002 3.9255205078125006 0.7545000000000002 Q 3.8910205078125006 0.8070000000000002 3.8317705078125006 0.8317500000000002 Q 3.7725205078125006 0.8565000000000002 3.6975205078125004 0.8565000000000002 M 3.6975205078125004 0.8295000000000001 Q 3.7545205078125004 0.8295000000000001 3.7867705078125002 0.7845000000000002 Q 3.8190205078125006 0.7395000000000002 3.8190205078125006 0.6195000000000002 Q 3.8190205078125006 0.49950000000000017 3.7867705078125002 0.4545000000000001 Q 3.7545205078125004 0.4095000000000001 3.6975205078125004 0.4095000000000001 Q 3.6420205078125005 0.4095000000000001 3.6090205078125006 0.4545000000000001 Q 3.5760205078125002 0.49950000000000017 3.5760205078125002 0.6195000000000002 Q 3.5760205078125002 0.7395000000000002 3.6090205078125006 0.7845000000000002 Q 3.6420205078125005 0.8295000000000001 3.6975205078125004 0.8295000000000001 M 3.9135205078125006 0.5070000000000001 L 3.8865205078125005 0.49650000000000016 Q 3.9075205078125004 0.4455000000000001 3.9585205078125005 0.4065000000000002 Q 4.009520507812501 0.36750000000000016 4.0650205078125 0.36750000000000016 Q 4.104020507812501 0.36750000000000016 4.128020507812501 0.3892500000000001 Q 4.152020507812501 0.41100000000000014 4.152020507812501 0.4545000000000001 Q 4.152020507812501 0.5010000000000001 4.127270507812501 0.5197500000000002 Q 4.102520507812501 0.5385000000000001 4.077020507812501 0.5385000000000001 Q 4.054520507812501 0.5385000000000001 4.035020507812501 0.5227500000000002 Q 4.0155205078125 0.5070000000000001 4.012520507812501 0.47250000000000014 Q 4.009520507812501 0.43800000000000017 4.033520507812501 0.3840000000000001 L 4.053020507812501 0.3885000000000002 Q 3.9900205078125004 0.4125000000000001 3.9630205078125007 0.4387500000000002 Q 3.9360205078125006 0.4650000000000002 3.9135205078125006 0.5070000000000001 M 4.561528564453125 0.3825000000000002 Q 4.657528564453125 0.3825000000000002 4.7340285644531255 0.4245000000000001 Q 4.810528564453126 0.46650000000000014 4.856278564453126 0.5565000000000001 Q 4.902028564453126 0.6465000000000002 4.902028564453126 0.7905000000000002 Q 4.902028564453126 0.9345000000000001 4.856278564453126 1.0237500000000002 Q 4.810528564453126 1.1130000000000002 4.7340285644531255 1.1550000000000002 Q 4.657528564453125 1.197 4.561528564453125 1.197 Q 4.467028564453125 1.197 4.389778564453126 1.1550000000000002 Q 4.3125285644531255 1.1130000000000002 4.2667785644531255 1.0237500000000002 Q 4.221028564453126 0.9345000000000001 4.221028564453126 0.7905000000000002 Q 4.221028564453126 0.6465000000000002 4.2667785644531255 0.5565000000000001 Q 4.3125285644531255 0.46650000000000014 4.389778564453126 0.4245000000000001 Q 4.467028564453125 0.3825000000000002 4.561528564453125 0.3825000000000002 M 4.561528564453125 0.4125000000000001 Q 4.4760285644531255 0.4125000000000001 4.421278564453125 0.5010000000000001 Q 4.366528564453126 0.5895000000000001 4.366528564453126 0.7905000000000002 Q 4.366528564453126 0.9915000000000002 4.421278564453125 1.07925 Q 4.4760285644531255 1.1670000000000003 4.561528564453125 1.1670000000000003 Q 4.647028564453126 1.1670000000000003 4.701778564453125 1.07925 Q 4.756528564453125 0.9915000000000002 4.756528564453125 0.7905000000000002 Q 4.756528564453125 0.5895000000000001 4.701778564453125 0.5010000000000001 Q 4.647028564453126 0.4125000000000001 4.561528564453125 0.4125000000000001 M 5.699989013671876 0.3870000000000001 L 5.699989013671876 1.0140000000000002 Q 5.699989013671876 1.0815000000000001 5.724739013671876 1.1137500000000002 Q 5.749489013671876 1.1460000000000001 5.8139890136718755 1.1460000000000001 L 5.8139890136718755 1.1775000000000002 Q 5.7674890136718755 1.1730000000000003 5.7209890136718755 1.1730000000000003 Q 5.677489013671876 1.1730000000000003 5.637739013671876 1.1775000000000002 Q 5.597989013671876 1.1820000000000002 5.564989013671876 1.1940000000000002 L 5.564989013671876 1.0170000000000001 Q 5.527489013671875 1.1145 5.459239013671875 1.15575 Q 5.390989013671875 1.197 5.318989013671875 1.197 Q 5.266489013671876 1.197 5.2274890136718755 1.1820000000000002 Q 5.188489013671876 1.1670000000000003 5.162989013671876 1.1400000000000001 Q 5.1344890136718755 1.11 5.123989013671876 1.062 Q 5.113489013671876 1.0140000000000002 5.113489013671876 0.9435000000000001 L 5.113489013671876 0.5670000000000002 Q 5.113489013671876 0.49950000000000017 5.089489013671876 0.46725000000000017 Q 5.0654890136718755 0.43500000000000016 4.999489013671876 0.43500000000000016 L 4.999489013671876 0.4035000000000002 Q 5.047489013671876 0.40800000000000014 5.092489013671876 0.40800000000000014 Q 5.1359890136718755 0.40800000000000014 5.175739013671875 0.40275000000000016 Q 5.215489013671876 0.3975000000000002 5.248489013671875 0.3870000000000001 L 5.248489013671875 0.9765000000000001 Q 5.248489013671875 1.0230000000000001 5.254489013671876 1.062 Q 5.260489013671876 1.1010000000000002 5.284489013671876 1.1250000000000002 Q 5.308489013671876 1.1490000000000002 5.362489013671876 1.1490000000000002 Q 5.420989013671876 1.1490000000000002 5.466739013671876 1.1130000000000002 Q 5.512489013671876 1.0770000000000002 5.538739013671876 1.0155 Q 5.564989013671876 0.9540000000000002 5.564989013671876 0.8775000000000002 L 5.564989013671876 0.5670000000000002 Q 5.564989013671876 0.49950000000000017 5.540989013671876 0.46725000000000017 Q 5.516989013671876 0.43500000000000016 5.450989013671876 0.43500000000000016 L 5.450989013671876 0.4035000000000002 Q 5.498989013671876 0.40800000000000014 5.543989013671876 0.40800000000000014 Q 5.587489013671876 0.40800000000000014 5.6272390136718755 0.40275000000000016 Q 5.666989013671875 0.3975000000000002 5.699989013671876 0.3870000000000001" fill="#ffffff" fill-rule="nonzero"></path></g><g></g></g><defs><clipPath id="SvgjsClipPath63823"><path d=" M -3.054305235478433 -0.6453992054480986 h 2.654305235478433 v 2.4667984108961973 h -2.654305235478433 Z"></path></clipPath><clipPath id="b596e79af-ac47-41c6-a6ad-693cba886d56bd7d2125-08d0-4f7d-bdbe-2848743df97a"><path d=" M -4.140238433887851 -1.9462162554187994 L 0.13208929011863946 -1.9462162554187994 L 0.13208929011863946 2.326088785909916 L -4.140238433887851 2.326088785909916 Z"></path></clipPath></defs></svg>